<svg width="30" height="30" viewBox="0 0 30 30" fill="none" xmlns="http://www.w3.org/2000/svg">
<path d="M15 23.7754C19.8478 23.7754 23.7778 19.8455 23.7778 14.9977C23.7778 10.1499 19.8478 6.21997 15 6.21997C10.1522 6.21997 6.22229 10.1499 6.22229 14.9977C6.22229 19.8455 10.1522 23.7754 15 23.7754Z" stroke="#C60007" stroke-width="1.3" stroke-miterlimit="10"/>
<path d="M13.1635 11.6626C12.6115 11.6626 12.1793 12.2334 12.1793 12.9627C12.1793 13.6914 12.6115 14.2622 13.1635 14.2622C13.7155 14.2622 14.1477 13.6914 14.1477 12.9627C14.1476 12.2334 13.7155 11.6626 13.1635 11.6626Z" fill="#C60007"/>
<path d="M16.8363 11.6626C16.2843 11.6626 15.8521 12.2334 15.8521 12.9627C15.8521 13.6914 16.2842 14.2622 16.8363 14.2622C17.3884 14.2622 17.8204 13.6914 17.8204 12.9627C17.8204 12.2334 17.3883 11.6626 16.8363 11.6626Z" fill="#C60007"/>
<path d="M18.6569 18.2243C17.6452 17.3374 16.3456 16.8484 15.0002 16.8484C13.6547 16.8484 12.3551 17.3374 11.3434 18.2243" stroke="#C60007" stroke-width="1.3" stroke-linecap="round" stroke-linejoin="round"/>
</svg>
