<svg width="30" height="30" viewBox="0 0 30 30" fill="none" xmlns="http://www.w3.org/2000/svg">
<path d="M14.8749 23.6504C19.7227 23.6504 23.6526 19.7205 23.6526 14.8727C23.6526 10.0249 19.7227 6.09497 14.8749 6.09497C10.0271 6.09497 6.09717 10.0249 6.09717 14.8727C6.09717 19.7205 10.0271 23.6504 14.8749 23.6504Z" stroke="#313F5A" stroke-width="1.3" stroke-miterlimit="10"/>
<path d="M11.2183 16.7234C12.23 17.6103 13.5296 18.0993 14.875 18.0993C16.2205 18.0993 17.5201 17.6103 18.5318 16.7234" stroke="#313F5A" stroke-width="1.3" stroke-linecap="round" stroke-linejoin="round"/>
<path d="M13.0386 11.5393C12.4866 11.5393 12.0544 12.1101 12.0544 12.8394C12.0544 13.5682 12.4866 14.1389 13.0386 14.1389C13.5906 14.1389 14.0228 13.5682 14.0228 12.8394C14.0228 12.1101 13.5906 11.5393 13.0386 11.5393Z" fill="#313F5A"/>
<path d="M16.7113 11.5393C16.1593 11.5393 15.7271 12.1101 15.7271 12.8394C15.7271 13.5682 16.1592 14.1389 16.7113 14.1389C17.2634 14.1389 17.6954 13.5682 17.6954 12.8394C17.6954 12.1101 17.2633 11.5393 16.7113 11.5393Z" fill="#313F5A"/>
</svg>
